<svg width="178" height="33" viewBox="0 0 178 33" fill="none" xmlns="http://www.w3.org/2000/svg">
<path d="M75.0089 26.7969H70.7758L68.4136 13.4371L66.0177 26.7969H61.8776L58 5.05762H61.9453L64.0535 21.36L66.1108 5.09989H70.8435L72.8923 21.36L75.0089 5.09989H78.895L75.0089 26.7969Z" fill="white"/>
<path d="M84.2454 14.0036H89.3252V17.4704H84.2454V23.3301H90.1126V26.7969H80.4102V5.05762H90.1211V8.54976H84.2454V14.0036Z" fill="white"/>
<path d="M104.107 20.5145C104.107 22.7214 103.65 24.3195 102.753 25.3173C101.855 26.3151 100.306 26.814 98.1472 26.814H92.2207V5.05762H98.1472C100.272 5.05762 101.779 5.52268 102.685 6.4528C103.591 7.38292 104.04 8.87956 104.04 10.9174C104.066 11.8587 103.884 12.7943 103.506 13.657C103.12 14.4221 102.471 15.0226 101.678 15.3481C102.539 15.6935 103.232 16.3609 103.608 17.2084C103.983 18.2687 104.153 19.3908 104.107 20.5145ZM96.0983 13.75H97.7408C98.0814 13.7885 98.4263 13.7533 98.7521 13.6468C99.0779 13.5403 99.3769 13.365 99.6288 13.1327C100.023 12.5734 100.211 11.8954 100.162 11.2133C100.234 10.4857 100.041 9.7566 99.6203 9.1586C99.3642 8.93408 99.064 8.76545 98.7389 8.66353C98.4138 8.5616 98.0709 8.52863 97.7323 8.56671H96.0983V13.75ZM100.23 20.1763C100.305 19.3468 100.099 18.5161 99.6457 17.8172C99.3995 17.5563 99.0967 17.3552 98.7607 17.2292C98.4247 17.1031 98.0642 17.0555 97.7069 17.09H96.0983V23.2964H97.7069C98.071 23.3411 98.4405 23.3001 98.786 23.1768C99.1314 23.0535 99.4432 22.8512 99.6965 22.5861C100.112 21.8668 100.295 21.0372 100.221 20.2101L100.23 20.1763Z" fill="white"/>
<path d="M107.4 24.2178C106.877 23.2622 106.611 22.1869 106.63 21.0977V5.03223H110.49V20.9794C110.436 21.6636 110.615 22.3462 110.998 22.9157C111.191 23.1295 111.43 23.2964 111.697 23.4034C111.964 23.5104 112.252 23.5548 112.539 23.5329C113.911 23.5329 114.588 22.6874 114.588 20.9963V5.05759H118.474V21.1231C118.496 22.2115 118.233 23.2868 117.712 24.2432C117.227 25.1309 116.495 25.8593 115.604 26.3402C114.661 26.8405 113.607 27.0936 112.539 27.0758C111.477 27.0933 110.428 26.8401 109.491 26.3402C108.611 25.8394 107.887 25.1048 107.4 24.2178Z" fill="white"/>
<path d="M125.13 5.05762V26.7969H121.27V5.05762H125.13Z" fill="white"/>
<path d="M131.784 5.05762V23.3301H137.626V26.7969H127.898V5.05762H131.784Z" fill="white"/>
<path d="M145.509 5.05729C146.34 4.98502 147.176 5.09842 147.957 5.38923C148.738 5.68005 149.445 6.14099 150.025 6.73857C150.606 7.33615 151.046 8.05536 151.313 8.84397C151.58 9.63257 151.669 10.4708 151.571 11.2977V20.599C151.637 21.4499 151.519 22.3049 151.227 23.107C150.935 23.909 150.475 24.6395 149.878 25.2497C148.636 26.3431 147.019 26.913 145.365 26.8394H139.523V5.05729H145.509ZM147.109 22.4846C147.533 21.7699 147.736 20.9464 147.694 20.117V11.9572C147.749 11.074 147.549 10.1935 147.118 9.42047C146.936 9.1425 146.683 8.91777 146.386 8.76922C146.088 8.62066 145.756 8.5536 145.425 8.57489H143.342V23.3556H145.425C145.757 23.3692 146.087 23.2961 146.383 23.1433C146.678 22.9906 146.929 22.7636 147.109 22.4846Z" fill="white"/>
<path d="M160.122 5.05729C160.953 4.98502 161.789 5.09842 162.57 5.38923C163.351 5.68005 164.058 6.14099 164.638 6.73857C165.219 7.33615 165.659 8.05536 165.926 8.84397C166.194 9.63257 166.282 10.4708 166.184 11.2977V20.599C166.25 21.4499 166.133 22.3049 165.841 23.107C165.549 23.909 165.088 24.6395 164.491 25.2497C163.25 26.3431 161.632 26.913 159.979 26.8394H154.137V5.05729H160.122ZM161.723 22.4846C162.149 21.7712 162.353 20.9467 162.307 20.117V11.9572C162.361 11.0751 162.164 10.1958 161.74 9.42047C161.555 9.14495 161.302 8.92212 161.005 8.77387C160.708 8.62562 160.378 8.55705 160.046 8.57489H157.964V23.3556H160.046C160.377 23.3661 160.705 23.2915 160.998 23.139C161.292 22.9865 161.541 22.7611 161.723 22.4846Z" fill="white"/>
<path d="M175.996 25.3848H177.884V27.0762H175.996V25.3848Z" fill="white"/>
<path d="M175.267 24.4297H172.956C172.212 24.4975 171.471 24.2798 170.882 23.8208C170.656 23.5846 170.482 23.3039 170.371 22.9966C170.26 22.6893 170.215 22.3623 170.238 22.0365C170.221 21.7281 170.266 21.4195 170.371 21.1289C170.476 20.8383 170.638 20.5718 170.848 20.3452C171.357 19.911 172.017 19.6952 172.685 19.7448H172.973V21.36H172.719C172.454 21.3396 172.19 21.4048 171.965 21.546C171.885 21.609 171.821 21.6901 171.778 21.7828C171.736 21.8754 171.716 21.9769 171.72 22.0788C171.714 22.189 171.737 22.299 171.788 22.3971C171.838 22.4953 171.914 22.5781 172.008 22.6369C172.299 22.7824 172.623 22.8467 172.948 22.8229H175.284C175.606 22.8482 175.928 22.7838 176.216 22.6369C176.309 22.5812 176.385 22.5017 176.437 22.4066C176.49 22.3114 176.515 22.2041 176.512 22.0957C176.517 21.9905 176.496 21.8857 176.452 21.79C176.408 21.6944 176.341 21.6107 176.258 21.546C176.03 21.4047 175.763 21.3395 175.496 21.36H175.25V19.7617H175.496C176.177 19.7054 176.853 19.9213 177.375 20.3621C177.589 20.5869 177.754 20.8529 177.86 21.1438C177.966 21.4347 178.012 21.7443 177.994 22.0534C178.017 22.3792 177.971 22.7062 177.861 23.0135C177.75 23.3208 177.576 23.6016 177.35 23.8377C176.756 24.2912 176.012 24.5027 175.267 24.4297Z" fill="white"/>
<path d="M175.268 18.6378H172.956C172.211 18.7075 171.468 18.4863 170.882 18.0204C170.466 17.5219 170.238 16.8935 170.238 16.2446C170.238 15.5956 170.466 14.9672 170.882 14.4687C171.474 14.0166 172.214 13.8024 172.956 13.8683H175.268C176.013 13.8019 176.755 14.016 177.35 14.4687C177.766 14.9672 177.994 15.5956 177.994 16.2446C177.994 16.8935 177.766 17.5219 177.35 18.0204C176.761 18.486 176.016 18.7071 175.268 18.6378ZM175.268 15.5173H172.931C172.607 15.4936 172.282 15.5579 171.991 15.7034C171.897 15.7615 171.82 15.8442 171.77 15.9425C171.719 16.0409 171.696 16.1511 171.703 16.2615C171.698 16.3692 171.722 16.4763 171.773 16.5715C171.824 16.6668 171.899 16.7466 171.991 16.8027C172.283 16.9444 172.607 17.0085 172.931 16.9888H175.268C175.589 17.0097 175.91 16.9456 176.199 16.8027C176.295 16.7535 176.376 16.6799 176.434 16.5893C176.492 16.4986 176.525 16.3943 176.529 16.2869C176.535 16.1758 176.51 16.0653 176.458 15.9671C176.406 15.8688 176.328 15.7865 176.233 15.7287C175.943 15.57 175.614 15.4967 175.285 15.5173H175.268Z" fill="white"/>
<path d="M170.349 11.1623H170.908C170.701 11.0215 170.532 10.8323 170.416 10.6112C170.299 10.3901 170.239 10.1439 170.239 9.894C170.235 9.59957 170.305 9.30874 170.442 9.04845C170.581 8.79642 170.778 8.58169 171.018 8.42273C170.794 8.23136 170.605 8.00246 170.459 7.74629C170.308 7.49068 170.232 7.19764 170.239 6.90074C170.208 6.62928 170.244 6.35442 170.343 6.09967C170.442 5.84492 170.601 5.61786 170.807 5.43792C171.31 5.1165 171.904 4.96532 172.5 5.0067H177.876V6.69781H172.508C172.293 6.68493 172.081 6.75448 171.916 6.89228C171.848 6.95451 171.795 7.03058 171.76 7.11524C171.725 7.1999 171.709 7.29115 171.712 7.3827C171.71 7.47412 171.727 7.56503 171.762 7.64953C171.797 7.73403 171.849 7.81022 171.916 7.87313C172.081 8.01093 172.293 8.08047 172.508 8.0676H177.876V9.70798H172.508C172.293 9.69511 172.081 9.76466 171.916 9.90245C171.849 9.96697 171.796 10.0446 171.761 10.1305C171.726 10.2164 171.71 10.3087 171.712 10.4013C171.708 10.493 171.724 10.5844 171.759 10.6691C171.794 10.7539 171.848 10.8299 171.916 10.8918C172.081 11.0296 172.293 11.0991 172.508 11.0862H177.876V12.7773H170.341L170.349 11.1623Z" fill="white"/>
<path d="M49.9718 15.6706C49.9915 15.6288 50.0012 15.5829 50 15.5366V8.56558C49.9996 8.47303 49.9629 8.38434 49.8977 8.31863L41.6849 0.105835C41.6517 0.0724511 41.6121 0.0460613 41.5685 0.0282227H41.5403C41.5064 0.0154348 41.4706 0.00828447 41.4344 0.00705567C41.4021 0.00950291 41.3702 0.0154167 41.3392 0.0246948C41.3275 0.0231408 41.3156 0.0231408 41.3039 0.0246948C41.2581 0.0420258 41.2171 0.0698115 41.1839 0.105835L33.2181 8.07169L25.2522 0.109363C25.2199 0.07539 25.181 0.0482186 25.138 0.0294398C25.095 0.010661 25.0487 0.0006524 25.0018 0C24.9617 0.000646935 24.9222 0.0090326 24.8853 0.0246948C24.839 0.0445553 24.7971 0.0733231 24.7619 0.109363L16.7819 8.07169L8.81959 0.109363C8.78462 0.0739041 8.74254 0.046251 8.69611 0.0282227C8.68326 0.0261773 8.67016 0.0261773 8.65731 0.0282227C8.62682 0.0248726 8.59607 0.0248726 8.56558 0.0282227C8.53311 0.0215431 8.4999 0.0191708 8.4668 0.021167H8.44564C8.40123 0.0394637 8.36057 0.0657723 8.32569 0.0987794L0.102307 8.31863C0.0827158 8.3398 0.0660997 8.36354 0.0529175 8.38919C0.0529175 8.38919 0.0317505 8.41389 0.0282227 8.43153C0.00968866 8.47503 9.09244e-05 8.52182 0 8.56911L0 15.5225C0.000881281 15.5697 0.0104484 15.6163 0.0282227 15.6601C0.0340329 15.6714 0.0411356 15.6821 0.0493897 15.6918C0.0624015 15.7216 0.0802854 15.749 0.102307 15.7729L8.31863 23.9893L16.535 32.2197C16.5632 32.2483 16.5967 32.2711 16.6337 32.2867C16.6983 32.3133 16.7693 32.3201 16.8378 32.3063C16.9062 32.2925 16.9691 32.2587 17.0183 32.2091L24.9982 24.2503L32.9711 32.2197C33.036 32.284 33.1232 32.3207 33.2146 32.322C33.2619 32.3219 33.3086 32.3123 33.3521 32.2938C33.395 32.2746 33.4344 32.2484 33.4686 32.2162L41.6814 23.9893L49.8977 15.7729C49.9294 15.7445 49.9546 15.7096 49.9718 15.6706ZM49.305 14.697L46.6591 12.0511L49.305 9.40521V14.697ZM46.1652 11.5607L41.7837 7.17562V1.1783L49.1604 8.555L46.1652 11.5607ZM16.7819 24.5079L12.5485 20.2745L14.2136 18.6093L16.7854 16.0375L21.0188 20.2709L16.7819 24.5079ZM41.0852 7.17914L36.6895 11.5572L33.6944 8.56558L41.0711 1.19241L41.0852 7.17914ZM12.0511 19.777L9.05948 16.7819L12.9401 12.9013L13.314 12.5273L16.288 15.5225L12.4286 19.4031L12.0511 19.777ZM11.5572 20.2709L8.91484 22.9309V17.6392L11.5572 20.2709ZM28.4908 19.777L25.4957 16.7819L29.7291 12.5485L32.7242 15.5225L28.4908 19.777ZM27.9969 20.2709L25.3475 22.9309V17.6392L27.9969 20.2709ZM30.2265 12.0511L32.8724 9.40521V14.697L30.2265 12.0511ZM33.5709 9.40874L36.2132 12.0511L33.5709 14.6934V9.40874ZM17.1347 9.40874L19.777 12.0511L17.1347 14.6934V9.40874ZM16.4291 14.7005L13.7832 12.0546L16.4291 9.41226V14.7005ZM17.2864 15.5225L20.2815 12.5309L24.5149 16.7643L21.5198 19.777L17.2864 15.5225ZM24.6525 17.6392V22.9309L22.0066 20.285L24.6525 17.6392ZM33.7085 15.5225L36.6895 12.545L37.067 12.9225L40.9264 16.7819L37.9348 19.777L37.5714 19.4031L33.7085 15.5225ZM41.0852 17.6392V22.9309L38.4534 20.2709L41.0852 17.6392ZM29.7291 11.5572L25.3475 7.17562V1.1783L32.7242 8.56558L29.7291 11.5572ZM25.0018 7.81415L29.2352 12.0476L25.0018 16.281L20.7684 12.0476L25.0018 7.81415ZM13.2964 11.5572L8.91484 7.17914V1.18182L16.288 8.555L13.2964 11.5572ZM8.56558 7.81415L12.799 12.0476L11.6136 13.2364L8.56205 16.288L4.32865 12.0546L8.56558 7.81415ZM28.4873 20.7613L32.8688 25.1464V31.1437L25.4921 23.7564L28.4873 20.7613ZM33.2146 24.5079L28.9812 20.2745L33.2146 16.0411L35.7052 18.5317L37.4691 20.2956L33.2146 24.5079ZM41.4344 16.2915L37.201 12.0581L41.4344 7.82474L45.6678 12.0581L41.4344 16.2915ZM24.6525 1.19241V7.18973L20.2709 11.5572L17.2864 8.56558L24.6525 1.19241ZM8.21633 1.19241V7.18973L3.83476 11.5607L0.839625 8.56558L8.21633 1.19241ZM3.34086 12.0511L0.705567 14.697V9.40521L3.34086 12.0511ZM3.83476 12.545L8.21633 16.9336V22.9309L0.839625 15.5225L3.83476 12.545ZM12.0511 20.7648L16.4362 25.1464V31.1437L9.05948 23.7564L12.0511 20.7648ZM17.1312 31.1296V25.1323L21.5198 20.7613L22.6734 21.9149L24.5149 23.7564L17.1312 31.1296ZM33.5673 31.1296V25.1323L37.9489 20.7543L40.9405 23.7459L33.5673 31.1296ZM41.7837 22.9309V16.9336L46.1652 12.552L49.1604 15.5225L41.7837 22.9309Z" fill="white"/>
</svg>
