<svg width="178" height="34" viewBox="0 0 178 34" fill="none" xmlns="http://www.w3.org/2000/svg">
<path d="M75.0089 27.3247H70.7758L68.4136 13.9478L66.0177 27.3247H61.8776L58 5.55762H61.9453L64.0535 21.8808L66.1108 5.59995H70.8435L72.8923 21.8808L75.0089 5.59995H78.895L75.0089 27.3247Z" fill="#CD424A"/>
<path d="M84.2454 14.515H89.3253V17.9863H84.2454V23.8535H90.1126V27.3247H80.4102V5.55762H90.1211V9.05423H84.2454V14.515Z" fill="#CD424A"/>
<path d="M104.107 21.0342C104.107 23.2439 103.65 24.844 102.753 25.8431C101.855 26.8421 100.306 27.3416 98.1472 27.3416H92.2207V5.55762H98.1472C100.272 5.55762 101.779 6.02327 102.685 6.95457C103.591 7.88587 104.04 9.38442 104.04 11.4248C104.066 12.3673 103.884 13.3041 103.506 14.1679C103.12 14.934 102.471 15.5352 101.678 15.8612C102.539 16.207 103.232 16.8753 103.608 17.7238C103.983 18.7855 104.153 19.909 104.107 21.0342ZM96.0983 14.2611H97.7408C98.0814 14.2996 98.4263 14.2644 98.7521 14.1577C99.0779 14.0511 99.3769 13.8755 99.6288 13.643C100.023 13.083 100.211 12.4041 100.162 11.7211C100.234 10.9926 100.041 10.2626 99.6203 9.66381C99.3642 9.439 99.064 9.27016 98.7389 9.16811C98.4138 9.06605 98.0709 9.03304 97.7323 9.07117H96.0983V14.2611ZM100.23 20.6955C100.305 19.8649 100.099 19.0332 99.6457 18.3334C99.3995 18.0722 99.0967 17.8708 98.7607 17.7446C98.4247 17.6184 98.0642 17.5708 97.7069 17.6053H96.0983V23.8196H97.7069C98.071 23.8643 98.4406 23.8233 98.786 23.6998C99.1314 23.5763 99.4432 23.3738 99.6965 23.1084C100.112 22.3881 100.295 21.5575 100.221 20.7294L100.23 20.6955Z" fill="#CD424A"/>
<path d="M107.4 24.7424C106.877 23.7856 106.611 22.7089 106.63 21.6183V5.53223H110.49V21.4998C110.436 22.1849 110.615 22.8684 110.998 23.4386C111.191 23.6527 111.43 23.8198 111.697 23.927C111.964 24.0341 112.252 24.0785 112.539 24.0566C113.911 24.0566 114.588 23.21 114.588 21.5167V5.55762H118.474V21.6437C118.496 22.7336 118.233 23.8102 117.712 24.7678C117.227 25.6567 116.495 26.386 115.604 26.8675C114.661 27.3684 113.607 27.6219 112.539 27.604C111.477 27.6216 110.428 27.3681 109.491 26.8675C108.611 26.3661 107.887 25.6305 107.4 24.7424Z" fill="#CD424A"/>
<path d="M125.13 5.55762V27.3247H121.27V5.55762H125.13Z" fill="#CD424A"/>
<path d="M131.785 5.55762V23.8535H137.626V27.3247H127.898V5.55762H131.785Z" fill="#CD424A"/>
<path d="M145.509 5.55781C146.34 5.48545 147.176 5.59898 147.957 5.89016C148.738 6.18135 149.445 6.64286 150.025 7.24119C150.606 7.83952 151.046 8.55963 151.313 9.34922C151.58 10.1388 151.669 10.9781 151.571 11.806V21.119C151.637 21.971 151.519 22.8271 151.227 23.6301C150.935 24.4331 150.475 25.1646 149.878 25.7755C148.636 26.8703 147.019 27.4409 145.365 27.3672H139.523V5.55781H145.509ZM147.109 23.007C147.533 22.2913 147.736 21.4668 147.693 20.6364V12.4664C147.749 11.582 147.549 10.7004 147.118 9.92645C146.936 9.64813 146.683 9.42312 146.386 9.27438C146.088 9.12564 145.756 9.0585 145.425 9.07981H143.342V23.879H145.425C145.757 23.8927 146.087 23.8194 146.383 23.6665C146.678 23.5136 146.929 23.2863 147.109 23.007Z" fill="#CD424A"/>
<path d="M160.122 5.55781C160.953 5.48545 161.789 5.59898 162.57 5.89016C163.351 6.18135 164.058 6.64286 164.638 7.24119C165.219 7.83952 165.659 8.55963 165.926 9.34922C166.194 10.1388 166.282 10.9781 166.184 11.806V21.119C166.25 21.971 166.133 22.8271 165.841 23.6301C165.549 24.4331 165.089 25.1646 164.491 25.7755C163.25 26.8703 161.632 27.4409 159.979 27.3672H154.137V5.55781H160.122ZM161.723 23.007C162.149 22.2927 162.353 21.4672 162.307 20.6364V12.4664C162.361 11.5832 162.164 10.7028 161.74 9.92645C161.555 9.65059 161.302 9.42748 161.005 9.27904C160.708 9.13061 160.378 9.06195 160.046 9.07981H157.964V23.879H160.046C160.377 23.8895 160.705 23.8149 160.998 23.6622C161.292 23.5094 161.541 23.2838 161.723 23.007Z" fill="#CD424A"/>
<path d="M175.996 25.9106H177.884V27.6039H175.996V25.9106Z" fill="#CD424A"/>
<path d="M175.267 24.9542H172.956C172.212 25.022 171.471 24.8041 170.882 24.3446C170.656 24.1082 170.482 23.8271 170.371 23.5194C170.26 23.2118 170.215 22.8844 170.238 22.5582C170.221 22.2495 170.266 21.9405 170.371 21.6496C170.476 21.3587 170.638 21.0918 170.848 20.8649C171.357 20.4303 172.017 20.2142 172.685 20.2638H172.973V21.8809H172.719C172.454 21.8605 172.19 21.9258 171.965 22.0672C171.885 22.1302 171.821 22.2115 171.778 22.3042C171.736 22.397 171.716 22.4985 171.72 22.6005C171.714 22.7109 171.737 22.821 171.788 22.9193C171.838 23.0175 171.914 23.1004 172.008 23.1593C172.299 23.305 172.623 23.3694 172.948 23.3456H175.284C175.606 23.3708 175.928 23.3064 176.216 23.1593C176.309 23.1036 176.385 23.024 176.437 22.9287C176.49 22.8334 176.515 22.726 176.512 22.6175C176.517 22.5121 176.496 22.4072 176.452 22.3115C176.408 22.2157 176.341 22.1319 176.258 22.0672C176.03 21.9257 175.763 21.8604 175.496 21.8809H175.25V20.2808H175.496C176.177 20.2244 176.853 20.4406 177.375 20.8819C177.589 21.1069 177.754 21.3733 177.86 21.6645C177.966 21.9557 178.012 22.2657 177.994 22.5751C178.017 22.9013 177.972 23.2287 177.861 23.5364C177.75 23.844 177.576 24.1251 177.35 24.3615C176.756 24.8155 176.012 25.0273 175.267 24.9542Z" fill="#CD424A"/>
<path d="M175.268 19.1546H172.956C172.211 19.2245 171.468 19.003 170.882 18.5366C170.466 18.0375 170.238 17.4083 170.238 16.7586C170.238 16.1089 170.466 15.4798 170.882 14.9807C171.474 14.528 172.214 14.3135 172.956 14.3796H175.268C176.013 14.313 176.755 14.5275 177.35 14.9807C177.766 15.4798 177.994 16.1089 177.994 16.7586C177.994 17.4083 177.766 18.0375 177.35 18.5366C176.761 19.0027 176.016 19.224 175.268 19.1546ZM175.268 16.0305H172.931C172.607 16.0067 172.282 16.0711 171.991 16.2168C171.897 16.275 171.82 16.3577 171.77 16.4562C171.719 16.5546 171.696 16.665 171.703 16.7755C171.698 16.8834 171.722 16.9906 171.773 17.086C171.824 17.1813 171.899 17.2613 171.991 17.3174C172.283 17.4593 172.607 17.5234 172.931 17.5037H175.268C175.589 17.5247 175.91 17.4604 176.199 17.3174C176.295 17.2681 176.376 17.1944 176.434 17.1037C176.492 17.013 176.525 16.9085 176.529 16.8009C176.535 16.6898 176.51 16.5791 176.458 16.4808C176.406 16.3824 176.328 16.3 176.233 16.2422C175.943 16.0832 175.614 16.0098 175.285 16.0305H175.268Z" fill="#CD424A"/>
<path d="M170.349 11.6702H170.908C170.701 11.5292 170.532 11.3398 170.416 11.1184C170.299 10.897 170.239 10.6505 170.239 10.4003C170.235 10.1055 170.305 9.81426 170.442 9.55363C170.581 9.30128 170.778 9.08628 171.018 8.92711C170.794 8.7355 170.605 8.50631 170.459 8.24981C170.308 7.99387 170.232 7.70046 170.239 7.40317C170.208 7.13137 170.244 6.85615 170.343 6.60108C170.442 6.346 170.601 6.11865 170.807 5.93848C171.31 5.61665 171.904 5.46528 172.5 5.5067H177.876V7.19998H172.508C172.293 7.18709 172.081 7.25673 171.916 7.3947C171.848 7.45702 171.795 7.53318 171.76 7.61795C171.725 7.70272 171.709 7.79408 171.712 7.88575C171.71 7.97728 171.727 8.06832 171.762 8.15292C171.797 8.23753 171.849 8.31381 171.916 8.37681C172.081 8.51478 172.293 8.58442 172.508 8.57153H177.876V10.214H172.508C172.293 10.2011 172.081 10.2708 171.916 10.4087C171.849 10.4733 171.796 10.5511 171.761 10.6371C171.726 10.7231 171.71 10.8154 171.712 10.9082C171.708 11 171.724 11.0915 171.759 11.1764C171.794 11.2612 171.848 11.3373 171.916 11.3993C172.081 11.5373 172.293 11.6069 172.508 11.594H177.876V13.2873H170.341L170.349 11.6702Z" fill="#CD424A"/>
<g clip-path="url(#clip0)">
<path d="M49.9718 16.1706C49.9915 16.1288 50.0012 16.0829 50 16.0366V9.06558C49.9996 8.97303 49.9629 8.88434 49.8977 8.81863L41.6849 0.605835C41.6517 0.572451 41.6121 0.546061 41.5685 0.528223H41.5403C41.5064 0.515435 41.4706 0.508284 41.4344 0.507056C41.4021 0.509503 41.3702 0.515417 41.3392 0.524695C41.3275 0.523141 41.3156 0.523141 41.3039 0.524695C41.2581 0.542026 41.2171 0.569812 41.1839 0.605835L33.2181 8.57169L25.2522 0.609363C25.2199 0.57539 25.181 0.548219 25.138 0.52944C25.095 0.510661 25.0487 0.500652 25.0018 0.5C24.9617 0.500647 24.9222 0.509033 24.8853 0.524695C24.839 0.544555 24.7971 0.573323 24.7619 0.609363L16.7819 8.57169L8.81959 0.609363C8.78462 0.573904 8.74254 0.546251 8.69611 0.528223C8.68326 0.526177 8.67016 0.526177 8.65731 0.528223C8.62682 0.524873 8.59607 0.524873 8.56558 0.528223C8.53311 0.521543 8.4999 0.519171 8.4668 0.521167H8.44564C8.40123 0.539464 8.36057 0.565772 8.32569 0.598779L0.102307 8.81863C0.0827158 8.8398 0.0660997 8.86354 0.0529175 8.88919C0.0529175 8.88919 0.0317505 8.91389 0.0282227 8.93153C0.00968866 8.97503 9.09244e-05 9.02182 0 9.06911L0 16.0225C0.000881281 16.0697 0.0104484 16.1163 0.0282227 16.1601C0.0340329 16.1714 0.0411356 16.1821 0.0493897 16.1918C0.0624015 16.2216 0.0802854 16.249 0.102307 16.2729L8.31863 24.4893L16.535 32.7197C16.5632 32.7483 16.5967 32.7711 16.6337 32.7867C16.6983 32.8133 16.7693 32.8201 16.8378 32.8063C16.9062 32.7925 16.9691 32.7587 17.0183 32.7091L24.9982 24.7503L32.9711 32.7197C33.036 32.784 33.1232 32.8207 33.2146 32.822C33.2619 32.8219 33.3086 32.8123 33.3521 32.7938C33.395 32.7746 33.4344 32.7484 33.4686 32.7162L41.6814 24.4893L49.8977 16.2729C49.9294 16.2445 49.9546 16.2096 49.9718 16.1706ZM49.305 15.197L46.6591 12.5511L49.305 9.90521V15.197ZM46.1652 12.0607L41.7837 7.67562V1.6783L49.1604 9.055L46.1652 12.0607ZM16.7819 25.0079L12.5485 20.7745L14.2136 19.1093L16.7854 16.5375L21.0188 20.7709L16.7819 25.0079ZM41.0852 7.67914L36.6895 12.0572L33.6944 9.06558L41.0711 1.69241L41.0852 7.67914ZM12.0511 20.277L9.05948 17.2819L12.9401 13.4013L13.314 13.0273L16.288 16.0225L12.4286 19.9031L12.0511 20.277ZM11.5572 20.7709L8.91484 23.4309V18.1392L11.5572 20.7709ZM28.4908 20.277L25.4957 17.2819L29.7291 13.0485L32.7242 16.0225L28.4908 20.277ZM27.9969 20.7709L25.3475 23.4309V18.1392L27.9969 20.7709ZM30.2265 12.5511L32.8724 9.90521V15.197L30.2265 12.5511ZM33.5709 9.90874L36.2132 12.5511L33.5709 15.1934V9.90874ZM17.1347 9.90874L19.777 12.5511L17.1347 15.1934V9.90874ZM16.4291 15.2005L13.7832 12.5546L16.4291 9.91226V15.2005ZM17.2864 16.0225L20.2815 13.0309L24.5149 17.2643L21.5198 20.277L17.2864 16.0225ZM24.6525 18.1392V23.4309L22.0066 20.785L24.6525 18.1392ZM33.7085 16.0225L36.6895 13.045L37.067 13.4225L40.9264 17.2819L37.9348 20.277L37.5714 19.9031L33.7085 16.0225ZM41.0852 18.1392V23.4309L38.4534 20.7709L41.0852 18.1392ZM29.7291 12.0572L25.3475 7.67562V1.6783L32.7242 9.06558L29.7291 12.0572ZM25.0018 8.31415L29.2352 12.5476L25.0018 16.781L20.7684 12.5476L25.0018 8.31415ZM13.2964 12.0572L8.91484 7.67914V1.68182L16.288 9.055L13.2964 12.0572ZM8.56558 8.31415L12.799 12.5476L11.6136 13.7364L8.56205 16.788L4.32865 12.5546L8.56558 8.31415ZM28.4873 21.2613L32.8688 25.6464V31.6437L25.4921 24.2564L28.4873 21.2613ZM33.2146 25.0079L28.9812 20.7745L33.2146 16.5411L35.7052 19.0317L37.4691 20.7956L33.2146 25.0079ZM41.4344 16.7915L37.201 12.5581L41.4344 8.32474L45.6678 12.5581L41.4344 16.7915ZM24.6525 1.69241V7.68973L20.2709 12.0572L17.2864 9.06558L24.6525 1.69241ZM8.21633 1.69241V7.68973L3.83476 12.0607L0.839625 9.06558L8.21633 1.69241ZM3.34086 12.5511L0.705567 15.197V9.90521L3.34086 12.5511ZM3.83476 13.045L8.21633 17.4336V23.4309L0.839625 16.0225L3.83476 13.045ZM12.0511 21.2648L16.4362 25.6464V31.6437L9.05948 24.2564L12.0511 21.2648ZM17.1312 31.6296V25.6323L21.5198 21.2613L22.6734 22.4149L24.5149 24.2564L17.1312 31.6296ZM33.5673 31.6296V25.6323L37.9489 21.2543L40.9405 24.2459L33.5673 31.6296ZM41.7837 23.4309V17.4336L46.1652 13.052L49.1604 16.0225L41.7837 23.4309Z" fill="#CD424A"/>
</g>
<defs>
<clipPath id="clip0">
<rect width="50.0001" height="33" fill="white" transform="translate(0 0.5)"/>
</clipPath>
</defs>
</svg>
